<svg width="282" height="289" viewBox="0 0 282 289" fill="none" xmlns="http://www.w3.org/2000/svg">
<g filter="url(#filter0_dddi_1_147)">
<path d="M231.982 182.9C233.43 186.777 234.24 190.911 234.24 195.283C234.24 214.379 219.094 228.716 201.363 237.618C182.973 246.851 158.341 252.24 131.74 252.24C105.139 252.24 80.5073 246.851 62.1171 237.618C44.386 228.716 29.24 214.379 29.24 195.283C29.2401 190.911 30.0481 186.777 31.4962 182.9C37.5199 189.412 44.7274 194.73 51.9531 198.89C53.6601 204.636 59.5209 211.553 72.0773 217.857C86.7743 225.236 107.852 230.12 131.74 230.12C155.628 230.12 176.706 225.236 191.403 217.857C203.959 211.553 209.819 204.636 211.526 198.89C218.752 194.731 225.958 189.412 231.982 182.9Z" fill="#0C1531" shape-rendering="crispEdges"/>
<path d="M131.74 35.24C146.356 35.24 175.055 39.5534 194.563 47.8486L175.055 67.425C163.482 62.4479 146.907 57.6672 131.74 57.6672C107.874 57.6672 86.816 62.6846 72.1323 70.2643C56.866 78.1448 51.4022 87.0175 51.4022 93.6442C51.4022 100.271 60.8011 112.511 71.471 117.688C82.1409 122.864 90.4093 126.154 110.909 131.795L94.3771 148.385C82.786 145.821 71.1789 141.708 62.0621 137.002C44.274 127.82 29.24 113.103 29.24 93.6442C29.24 74.1853 44.274 59.4687 62.0621 50.2864C80.4657 40.7865 105.117 35.24 131.74 35.24Z" fill="#0C1531" shape-rendering="crispEdges"/>
<path fill-rule="evenodd" clip-rule="evenodd" d="M41.3415 171.974C40.8989 171.501 40.5886 171.161 40.2229 170.749C39.599 170.045 38.9961 169.328 38.4156 168.599C32.7631 161.497 29.24 153.194 29.24 143.78C29.24 139.765 29.8927 135.941 31.0769 132.325C37.329 139.209 44.9103 144.782 52.4825 149.085C54.7253 154.746 60.6602 161.222 72.1305 167.138C86.8145 174.713 107.873 179.726 131.74 179.726C155.607 179.726 176.665 174.713 191.35 167.138C206.617 159.263 212.078 150.397 212.078 143.78C212.078 137.164 206.617 128.298 191.35 120.423C177.787 113.427 156.384 108.594 134.716 107.905L154.224 88.3287C174.49 90.5124 188.288 93.6795 201.416 100.451C219.203 109.625 234.24 124.332 234.24 143.78C234.24 163.229 219.203 177.935 201.416 187.11C183.013 196.602 158.362 202.144 131.74 202.144C105.118 202.144 80.4671 196.602 62.0639 187.11C54.4937 183.205 48.1925 179.297 41.3415 171.974Z" fill="#0C1531" shape-rendering="crispEdges"/>
<path d="M227.08 177.737C228.746 176.155 231.085 175.467 233.358 175.915C235.783 176.392 237.787 178.094 238.652 180.409C240.382 185.038 241.36 190.014 241.36 195.283L241.346 196.368C240.787 219.041 222.733 234.856 204.557 243.981C184.982 253.809 159.211 259.36 131.74 259.36C104.269 259.36 78.4983 253.809 58.9226 243.981C40.4589 234.711 22.1199 218.537 22.1199 195.283L22.1316 194.299C22.2453 189.395 23.2051 184.75 24.8269 180.409L25.0017 179.982C25.9434 177.886 27.8473 176.363 30.1208 175.915C32.5457 175.437 35.0451 176.251 36.7234 178.065C41.8154 183.57 47.9326 188.216 54.2419 191.979L55.5056 192.72L55.7976 192.897C57.2312 193.817 58.2909 195.223 58.7781 196.863C59.6876 199.924 63.5533 205.61 75.2722 211.494C88.7842 218.277 108.723 223.001 131.74 223.001C154.757 223.001 174.696 218.277 188.208 211.494C199.926 205.611 203.791 199.925 204.701 196.863L204.805 196.538C205.368 194.93 206.491 193.574 207.973 192.72C214.726 188.833 221.324 183.937 226.756 178.065L227.08 177.737ZM149.18 83.3025C150.704 81.7733 152.841 81.0185 154.987 81.2498C175.628 83.4739 190.425 86.7701 204.68 94.1228C223.27 103.711 241.36 120.275 241.36 143.78C241.36 167.286 223.27 183.85 204.68 193.438C185.075 203.551 159.259 209.264 131.74 209.264C104.221 209.264 78.4048 203.551 58.7996 193.438C50.8203 189.322 43.7493 184.968 36.1423 176.838C35.9046 176.584 35.6971 176.36 35.4968 176.14L34.8943 175.471C34.1897 174.677 33.5057 173.864 32.8445 173.033C26.3848 164.917 22.1199 155.093 22.1199 143.78C22.1199 138.981 22.9018 134.41 24.3103 130.109L24.3884 129.885C25.2262 127.588 27.1879 125.875 29.5896 125.362C32.0689 124.833 34.6429 125.661 36.3474 127.538C41.6278 133.352 48.0562 138.225 54.6746 142.128L55.9998 142.895L56.2605 143.051C57.5449 143.855 58.5422 145.049 59.1023 146.463C60.4728 149.922 64.7591 155.325 75.3943 160.81C88.8767 167.765 108.771 172.606 131.74 172.606C154.709 172.606 174.603 167.765 188.086 160.81C202.463 153.394 204.957 146.402 204.958 143.781L204.95 143.522C204.79 140.723 202.015 133.936 188.086 126.751C175.745 120.385 155.468 115.688 134.49 115.021C131.655 114.931 129.143 113.167 128.097 110.531C127.051 107.895 127.671 104.889 129.673 102.88L149.18 83.3025ZM131.74 28.1199C147.129 28.1199 176.804 32.561 197.348 41.2966C199.524 42.2217 201.098 44.1658 201.551 46.4861C202.003 48.8064 201.275 51.2003 199.606 52.8748L180.098 72.4509C178.038 74.5187 174.924 75.1187 172.242 73.9656C161.219 69.225 145.629 64.7869 131.74 64.7869C108.772 64.7869 88.8798 69.6324 75.3982 76.5916L75.3972 76.5906C61.0219 84.0113 58.5222 91.0113 58.5222 93.6443C58.5223 93.6479 58.523 93.7124 58.5437 93.8445C58.5654 93.9828 58.6061 94.1754 58.6765 94.4236C58.8197 94.9281 59.0644 95.5783 59.4441 96.3611C60.2087 97.9375 61.3958 99.7921 62.9626 101.721C66.1389 105.632 70.3728 109.241 74.5789 111.282C84.7731 116.228 92.617 119.377 112.799 124.93C115.241 125.602 117.142 127.521 117.792 129.969C118.441 132.418 117.741 135.027 115.953 136.821L99.4207 153.411C97.701 155.137 95.2183 155.864 92.8396 155.338C81.1029 152.741 69.2875 148.618 59.7156 143.798L58.7966 143.329C40.2038 133.731 22.1199 117.157 22.1199 93.6443C22.1199 70.1311 40.2038 53.5574 58.7966 43.9597C78.4026 33.8392 104.22 28.1199 131.74 28.1199Z" stroke="url(#paint0_linear_1_147)" stroke-width="14.24" stroke-linejoin="round" shape-rendering="crispEdges"/>
</g>
<defs>
<filter id="filter0_dddi_1_147" x="0" y="0" width="281.249" height="288.823" filterUnits="userSpaceOnUse" color-interpolation-filters="sRGB">
<feFlood flood-opacity="0" result="BackgroundImageFix"/>
<feColorMatrix in="SourceAlpha" type="matrix" values="0 0 0 0 0 0 0 0 0 0 0 0 0 0 0 0 0 0 127 0" result="hardAlpha"/>
<feOffset dx="2.97902" dy="2.97902"/>
<feGaussianBlur stdDeviation="2.97902"/>
<feComposite in2="hardAlpha" operator="out"/>
<feColorMatrix type="matrix" values="0 0 0 0 0 0 0 0 0 0 0 0 0 0 0 0 0 0 0.15 0"/>
<feBlend mode="plus-darker" in2="BackgroundImageFix" result="effect1_dropShadow_1_147"/>
<feColorMatrix in="SourceAlpha" type="matrix" values="0 0 0 0 0 0 0 0 0 0 0 0 0 0 0 0 0 0 127 0" result="hardAlpha"/>
<feOffset dx="14.8951" dy="4.46853"/>
<feGaussianBlur stdDeviation="8.93707"/>
<feColorMatrix type="matrix" values="0 0 0 0 0 0 0 0 0 0 0 0 0 0 0 0 0 0 0.05 0"/>
<feBlend mode="plus-darker" in2="effect1_dropShadow_1_147" result="effect2_dropShadow_1_147"/>
<feColorMatrix in="SourceAlpha" type="matrix" values="0 0 0 0 0 0 0 0 0 0 0 0 0 0 0 0 0 0 127 0" result="hardAlpha"/>
<feOffset dy="-6"/>
<feGaussianBlur stdDeviation="7.5"/>
<feComposite in2="hardAlpha" operator="out"/>
<feColorMatrix type="matrix" values="0 0 0 0 1 0 0 0 0 1 0 0 0 0 1 0 0 0 0.42 0"/>
<feBlend mode="normal" in2="effect2_dropShadow_1_147" result="effect3_dropShadow_1_147"/>
<feBlend mode="normal" in="SourceGraphic" in2="effect3_dropShadow_1_147" result="shape"/>
<feColorMatrix in="SourceAlpha" type="matrix" values="0 0 0 0 0 0 0 0 0 0 0 0 0 0 0 0 0 0 127 0" result="hardAlpha"/>
<feOffset dy="1"/>
<feGaussianBlur stdDeviation="2"/>
<feComposite in2="hardAlpha" operator="arithmetic" k2="-1" k3="1"/>
<feColorMatrix type="matrix" values="0 0 0 0 1 0 0 0 0 1 0 0 0 0 1 0 0 0 1 0"/>
<feBlend mode="normal" in2="shape" result="effect4_innerShadow_1_147"/>
</filter>
<linearGradient id="paint0_linear_1_147" x1="234.116" y1="259.807" x2="-23.2283" y2="216.224" gradientUnits="userSpaceOnUse">
<stop stop-color="white" stop-opacity="0.8"/>
<stop offset="1" stop-color="white" stop-opacity="0.02"/>
</linearGradient>
</defs>
</svg>
